<svg xmlns="http://www.w3.org/2000/svg" width="70" height="70" fill="none" viewBox="0 0 70 70">
    <rect width="70" height="70" fill="#5458F7" rx="22.34"/>
    <path fill="#fff" d="M32.383 41.351c-.204 0-.406-.04-.595-.117-.188-.078-.36-.193-.503-.337l-4.363-4.364c-.282-.293-.439-.685-.435-1.092.003-.406.166-.796.454-1.083.288-.288.677-.451 1.084-.454.406-.004.798.152 1.09.435l3.267 3.267 8.503-8.502c.294-.275.683-.426 1.086-.42.403.006.788.17 1.073.454.285.285.448.67.454 1.072.007.403-.144.793-.42 1.087l-9.6 9.6c-.144.144-.315.259-.503.337-.188.078-.39.118-.593.117h.001z" opacity=".99"/>
    <path fill="#fff" d="M35 19.486c-3.068 0-6.067.91-8.619 2.614-2.551 1.705-4.54 4.128-5.714 6.963-1.174 2.835-1.481 5.954-.883 8.963.6 3.01 2.077 5.774 4.246 7.944 2.17 2.17 4.934 3.647 7.944 4.246 3.01.599 6.129.291 8.963-.883 2.835-1.174 5.258-3.163 6.963-5.714 1.705-2.551 2.615-5.55 2.615-8.62-.005-4.112-1.64-8.056-4.55-10.964-2.908-2.909-6.851-4.545-10.965-4.55zm8.079 11.81l-9.6 9.6c-.291.292-.686.455-1.097.455-.412 0-.806-.163-1.097-.454l-4.363-4.364c-.282-.293-.439-.685-.435-1.092.003-.406.167-.796.454-1.083.288-.288.677-.451 1.084-.454.407-.004.798.152 1.091.435l3.266 3.267 8.503-8.502c.294-.275.683-.426 1.086-.42.403.006.788.17 1.073.454.285.285.448.67.454 1.072.007.403-.144.793-.42 1.087z" opacity=".5"/>
</svg>
